<?xml version="1.0" encoding="UTF-8" standalone="no"?>
<svg
   xmlns:dc="http://purl.org/dc/elements/1.1/"
   xmlns:cc="http://creativecommons.org/ns#"
   xmlns:rdf="http://www.w3.org/1999/02/22-rdf-syntax-ns#"
   xmlns:svg="http://www.w3.org/2000/svg"
   xmlns="http://www.w3.org/2000/svg"
   xmlns:sodipodi="http://sodipodi.sourceforge.net/DTD/sodipodi-0.dtd"
   xmlns:inkscape="http://www.inkscape.org/namespaces/inkscape"
   version="1.1"
   id="svg62"
   xml:space="preserve"
   x="0px"
  y="0px"
   viewBox="0 0 337.72001 88.410007"
   sodipodi:docname="maxwell.svg"
>
   <g
     id="g70"
     inkscape:groupmode="layer"
     inkscape:label="MaxWell-logo2-shield"
     transform="matrix(1.3333333,0,0,-1.3333333,0,326.08533)"><g
       id="g80"
       transform="matrix(0.75935271,0,0,0.75935271,149.38373,233.04774)"><path
         d="m 0,0 h -4.72 c -2.905,0 -3.373,-2.839 -3.373,-4.877 0,-1.202 0.231,-3.912 -0.892,-6.063 3.109,-0.734 5.413,-2.077 7.082,-3.475 C 0.866,-8.638 0,0 0,0"
         style="fill:#284f82;fill-opacity:1;fill-rule:nonzero;stroke:none"
         id="path82" /></g><g
       id="g84"
       transform="matrix(0.75935271,0,0,0.75935271,128.7314,217.8963)"><path
         d="m 0,0 c -3.304,-5.736 -2.347,-15.265 -2.347,-15.265 h 4.72 c 2.905,0 3.373,2.837 3.373,4.875 0,1.269 -0.27,4.214 1.072,6.411 C 3.729,-3.034 1.516,-1.49 0,0"
         style="fill:#284f82;fill-opacity:1;fill-rule:nonzero;stroke:none"
         id="path86" /></g><g
       id="g88"
       transform="matrix(0.75935271,0,0,0.75935271,61.722221,238.81404)"><path
         d="m 0,0 h 8.068 c 1.244,0 2.399,-0.642 3.055,-1.697 L 21.227,-17.95 31.331,-1.697 C 31.987,-0.642 33.142,0 34.385,0 h 8.068 v -42.452 h -5.682 c -1.986,0 -3.597,1.609 -3.597,3.598 v 24.118 L 21.227,-32.87 H 20.984 L 9.158,-14.919 v -23.935 c 0,-1.989 -1.611,-3.598 -3.597,-3.598 H 0 Z"
         style="fill:#284f82;fill-opacity:1;fill-rule:nonzero;stroke:none"
         id="path90" /></g><g
       id="g92"
       transform="matrix(0.75935271,0,0,0.75935271,154.08443,232.69473)"><path
         d="m 0,0 h 5.954 c 1.282,0 2.414,-0.836 2.788,-2.063 l 6.497,-21.238 7.719,23.4 h 6.489 l 7.718,-23.4 6.498,21.238 C 44.038,-0.836 45.169,0 46.45,0 h 5.758 L 40.459,-34.657 H 35.95 c -1.243,0 -2.35,0.788 -2.756,1.965 l -7.09,20.549 -7.089,-20.549 c -0.406,-1.177 -1.513,-1.965 -2.757,-1.965 H 11.75 Z"
         style="fill:#284f82;fill-opacity:1;fill-rule:nonzero;stroke:none"
         id="path94" /></g><g
       id="g96"
       transform="matrix(0.75935271,0,0,0.75935271,212.57015,220.85437)"><path
         d="M 0,0 C -0.546,4.123 -2.973,6.913 -6.854,6.913 -10.675,6.913 -13.16,4.185 -13.89,0 Z m -22.926,-2.729 v 0.122 c 0,9.278 6.613,16.92 16.072,16.92 10.857,0 15.83,-8.43 15.83,-17.65 L 8.974,-5.763 h -22.742 c 0.911,-4.183 3.822,-6.368 7.946,-6.368 2.22,0 4.006,0.501 5.778,1.66 1.356,0.888 3.14,0.763 4.354,-0.312 l 3.028,-2.682 c -3.032,-3.76 -7.4,-6.063 -13.281,-6.063 -9.764,0 -16.983,6.852 -16.983,16.799"
         style="fill:#284f82;fill-opacity:1;fill-rule:nonzero;stroke:none"
         id="path98" /></g><g
       id="g100"
       transform="matrix(0.75935271,0,0,0.75935271,236.77011,240.1963)"><path
         d="M 0,0 H 5.62 C 7.606,0 9.218,-1.61 9.218,-3.598 V -44.272 H 3.597 c -1.988,0 -3.597,1.61 -3.597,3.596 z"
         style="fill:#284f82;fill-opacity:1;fill-rule:nonzero;stroke:none"
         id="path102" /></g><g
       id="g104"
       transform="matrix(0.75935271,0,0,0.75935271,224.33715,240.1963)"><path
         d="M 0,0 H 5.621 C 7.606,0 9.218,-1.61 9.218,-3.598 V -44.272 H 3.597 c -1.988,0 -3.597,1.61 -3.597,3.596 z"
         style="fill:#284f82;fill-opacity:1;fill-rule:nonzero;stroke:none"
         id="path106" /></g><g
       id="g108"
       transform="matrix(0.75935271,0,0,0.75935271,114.45685,211.77402)"><path
         d="m 0,0 c 0,0 0.052,-0.062 -4.414,-0.062 -3.081,0 -6.195,0.062 -6.195,3.718 0,3.407 1.672,4.089 6.195,4.089 C -0.555,7.745 0,6.604 0,6.604 Z m 5.409,23.781 c -2.39,2.391 -5.87,3.775 -11.09,3.775 h -10.835 l -0.059,-4.64 c -0.043,-2.139 1.801,-3.536 3.909,-3.536 h 6.985 c 4.78,0 5.556,-2.201 5.556,-6.163 -2.391,0.816 -4.843,0.816 -8.239,0.816 -7.698,0 -11.694,-5.174 -11.694,-10.816 0,-6.666 3.624,-10.376 13.612,-10.376 4.654,0 14.759,0.629 14.759,0.629 v 19.557 c 0,4.529 -0.389,8.24 -2.904,10.754"
         style="fill:#284f82;fill-opacity:1;fill-rule:nonzero;stroke:none"
         id="path110" /></g><g
       id="g112"
       transform="matrix(0.75935271,0,0,0.75935271,147.15753,219.24143)"><path
         d="M 0,0 C -1.819,1.991 -5.231,4.364 -11.158,4.364 V 4.37 c -2.306,0 -3.939,0.557 -4.992,1.697 -2.041,2.214 -1.686,5.803 -1.686,7.239 0,2.038 -0.468,4.876 -3.374,4.876 h -4.72 c 0,0 -1.184,-11.772 3.615,-17.025 1.819,-1.991 5.231,-4.363 11.157,-4.363 v -0.007 c 2.307,0 3.94,-0.555 4.993,-1.696 2.041,-2.215 1.686,-5.803 1.686,-7.237 0,-2.04 0.468,-4.875 3.374,-4.875 h 4.72 c 0,0 1.184,11.768 -3.615,17.021"
         style="fill:#284f82;fill-opacity:1;fill-rule:nonzero;stroke:none"
         id="path114" /></g><g
       id="g116"
       transform="matrix(0.75935271,0,0,0.75935271,246.32276,239.44659)"><path
         d="m 0,0 h 1.584 v -3.013 h 1 V 0 H 4.168 V 1 H 0 Z"
         style="fill:#284f82;fill-opacity:1;fill-rule:nonzero;stroke:none"
         id="path118" /></g><g
       id="g120"
       transform="matrix(0.75935271,0,0,0.75935271,253.01312,240.20298)"><path
         d="M 0,0 C -0.206,0.063 -0.437,-0.013 -0.562,-0.193 L -1.811,-2.008 -3.06,-0.193 C -3.185,-0.013 -3.412,0.063 -3.619,0 -3.828,-0.064 -3.972,-0.259 -3.972,-0.478 v -3.543 h 1 v 1.936 l 0.749,-1.088 c 0.189,-0.269 0.638,-0.269 0.826,0 l 0.749,1.088 v -1.936 h 1 v 3.543 C 0.352,-0.259 0.209,-0.064 0,0"
         style="fill:#284f82;fill-opacity:1;fill-rule:nonzero;stroke:none"
         id="path122" /></g><g
       id="g124"
       transform="matrix(0.75935271,0,0,0.75935271,69.739922,186.45288)"><path
         d="m 0,0 c 1.685,0 2.701,0.595 2.701,1.883 v 0.05 c 0,1.165 -0.868,1.881 -2.825,1.881 H -4.535 V 0 Z m -1.016,6.986 c 1.685,0 2.75,0.546 2.75,1.834 v 0.05 c 0,1.141 -0.892,1.784 -2.503,1.784 H -4.535 V 6.986 Z m -7.236,5.107 c 0,1.064 0.843,1.907 1.908,1.907 h 6.146 c 1.982,0 3.543,-0.546 4.534,-1.536 0.793,-0.793 1.19,-1.76 1.19,-2.948 V 9.466 C 5.526,7.508 4.485,6.418 3.246,5.724 5.253,4.955 6.492,3.791 6.492,1.462 V 1.411 C 6.492,-1.761 3.915,-3.347 0,-3.347 h -6.344 c -1.065,0 -1.908,0.843 -1.908,1.91 z"
         style="fill:#284f82;fill-opacity:1;fill-rule:nonzero;stroke:none"
         id="path126" /></g><g
       id="g128"
       transform="matrix(0.75935271,0,0,0.75935271,82.842103,195.74828)"><path
         d="M 0,0 C 0,1.064 0.843,1.907 1.908,1.907 2.974,1.907 3.816,1.064 3.816,0 v -13.827 c 0,-1.068 -0.842,-1.908 -1.908,-1.908 -1.065,0 -1.908,0.84 -1.908,1.908 z"
         style="fill:#284f82;fill-opacity:1;fill-rule:nonzero;stroke:none"
         id="path130" /></g><g
       id="g132"
       transform="matrix(0.75935271,0,0,0.75935271,105.06836,190.45945)"><path
         d="m 0,0 v 0.051 c 0,2.972 -2.181,5.452 -5.253,5.452 -3.073,0 -5.204,-2.43 -5.204,-5.402 v -0.05 c 0,-2.975 2.181,-5.451 5.253,-5.451 C -2.131,-5.4 0,-2.973 0,0 m -14.447,0 v 0.051 c 0,4.93 3.89,8.97 9.243,8.97 5.352,0 9.194,-3.99 9.194,-8.92 v -0.05 c 0,-4.932 -3.891,-8.971 -9.243,-8.971 -5.353,0 -9.194,3.989 -9.194,8.92"
         style="fill:#284f82;fill-opacity:1;fill-rule:nonzero;stroke:none"
         id="path134" /></g><g
       id="g136"
       transform="matrix(0.75935271,0,0,0.75935271,115.97001,185.3042)"><path
         d="m 0,0 c -0.421,0.298 -0.718,0.843 -0.718,1.437 0,0.992 0.793,1.759 1.784,1.759 0.496,0 0.842,-0.173 1.09,-0.345 1.314,-0.967 2.751,-1.563 4.436,-1.563 1.561,0 2.503,0.62 2.503,1.637 v 0.05 C 9.095,3.939 8.5,4.437 5.601,5.18 2.106,6.071 -0.148,7.037 -0.148,10.481 v 0.05 c 0,3.149 2.527,5.23 6.071,5.23 2.106,0 3.94,-0.545 5.501,-1.536 0.421,-0.248 0.843,-0.77 0.843,-1.512 0,-0.991 -0.793,-1.76 -1.785,-1.76 -0.372,0 -0.669,0.1 -0.966,0.274 -1.264,0.743 -2.454,1.164 -3.643,1.164 -1.462,0 -2.23,-0.669 -2.23,-1.512 v -0.05 C 3.643,9.688 4.386,9.317 7.385,8.55 10.903,7.633 12.886,6.368 12.886,3.346 V 3.297 c 0,-3.444 -2.627,-5.379 -6.368,-5.379 C 4.238,-2.082 1.933,-1.388 0,0"
         style="fill:#284f82;fill-opacity:1;fill-rule:nonzero;stroke:none"
         id="path138" /></g><g
       id="g140"
       transform="matrix(0.75935271,0,0,0.75935271,133.34346,190.45945)"><path
         d="m 0,0 v 0.051 c 0,4.93 3.717,8.97 9.045,8.97 2.601,0 4.361,-0.695 5.799,-1.759 0.396,-0.297 0.742,-0.842 0.742,-1.512 0,-1.04 -0.842,-1.858 -1.883,-1.858 -0.519,0 -0.867,0.198 -1.14,0.372 -1.065,0.793 -2.18,1.239 -3.543,1.239 -2.924,0 -5.03,-2.43 -5.03,-5.402 v -0.05 c 0,-2.975 2.057,-5.451 5.03,-5.451 1.611,0 2.676,0.495 3.767,1.362 0.297,0.248 0.693,0.422 1.139,0.422 0.967,0 1.785,-0.793 1.785,-1.761 0,-0.595 -0.298,-1.064 -0.645,-1.362 C 13.506,-8.103 11.672,-8.92 8.896,-8.92 3.791,-8.92 0,-4.979 0,0"
         style="fill:#284f82;fill-opacity:1;fill-rule:nonzero;stroke:none"
         id="path142" /></g><g
       id="g144"
       transform="matrix(0.75935271,0,0,0.75935271,153.59609,195.74828)"><path
         d="M 0,0 C 0,1.064 0.843,1.907 1.908,1.907 2.974,1.907 3.816,1.064 3.816,0 v -13.827 c 0,-1.068 -0.842,-1.908 -1.908,-1.908 -1.065,0 -1.908,0.84 -1.908,1.908 z"
         style="fill:#284f82;fill-opacity:1;fill-rule:nonzero;stroke:none"
         id="path146" /></g><g
       id="g148"
       transform="matrix(0.75935271,0,0,0.75935271,165.43614,185.3613)"><path
         d="m 0,0 v 13.529 c 0,1.067 0.843,1.909 1.907,1.909 h 9.614 c 0.943,0 1.711,-0.768 1.711,-1.709 0,-0.944 -0.768,-1.686 -1.711,-1.686 H 3.792 v -3.52 h 6.614 c 0.943,0 1.711,-0.767 1.711,-1.71 0,-0.941 -0.768,-1.684 -1.711,-1.684 H 3.792 V 1.485 h 7.854 c 0.943,0 1.709,-0.766 1.709,-1.709 0,-0.941 -0.766,-1.684 -1.709,-1.684 H 1.907 C 0.843,-1.908 0,-1.065 0,0"
         style="fill:#284f82;fill-opacity:1;fill-rule:nonzero;stroke:none"
         id="path150" /></g><g
       id="g152"
       transform="matrix(0.75935271,0,0,0.75935271,183.69401,195.71046)"><path
         d="m 0,0 c 0,1.064 0.842,1.907 1.908,1.907 h 0.397 c 0.916,0 1.462,-0.445 1.982,-1.114 l 7.359,-9.664 v 8.944 c 0,1.041 0.842,1.885 1.882,1.885 1.041,0 1.886,-0.844 1.886,-1.885 v -13.802 c 0,-1.066 -0.845,-1.909 -1.908,-1.909 h -0.125 c -0.916,0 -1.461,0.448 -1.984,1.117 l -7.63,10.01 v -9.293 c 0,-1.041 -0.843,-1.883 -1.884,-1.883 -1.041,0 -1.883,0.842 -1.883,1.883 z"
         style="fill:#284f82;fill-opacity:1;fill-rule:nonzero;stroke:none"
         id="path154" /></g><g
       id="g156"
       transform="matrix(0.75935271,0,0,0.75935271,203.62702,190.45945)"><path
         d="m 0,0 v 0.051 c 0,4.93 3.717,8.97 9.045,8.97 2.601,0 4.36,-0.695 5.799,-1.759 0.395,-0.297 0.744,-0.842 0.744,-1.512 0,-1.04 -0.844,-1.858 -1.885,-1.858 -0.519,0 -0.867,0.198 -1.14,0.372 -1.065,0.793 -2.18,1.239 -3.542,1.239 -2.925,0 -5.032,-2.43 -5.032,-5.402 v -0.05 c 0,-2.975 2.058,-5.451 5.032,-5.451 1.61,0 2.675,0.495 3.766,1.362 0.297,0.248 0.692,0.422 1.14,0.422 0.966,0 1.784,-0.793 1.784,-1.761 0,-0.595 -0.297,-1.064 -0.646,-1.362 C 13.506,-8.103 11.672,-8.92 8.896,-8.92 3.791,-8.92 0,-4.979 0,0"
         style="fill:#284f82;fill-opacity:1;fill-rule:nonzero;stroke:none"
         id="path158" /></g><g
       id="g160"
       transform="matrix(0.75935271,0,0,0.75935271,223.74836,185.3613)"><path
         d="m 0,0 v 13.529 c 0,1.067 0.842,1.909 1.907,1.909 h 9.615 c 0.943,0 1.709,-0.768 1.709,-1.709 0,-0.944 -0.766,-1.686 -1.709,-1.686 H 3.791 v -3.52 h 6.616 c 0.943,0 1.709,-0.767 1.709,-1.71 0,-0.941 -0.766,-1.684 -1.709,-1.684 H 3.791 V 1.485 h 7.855 c 0.942,0 1.709,-0.766 1.709,-1.709 0,-0.941 -0.767,-1.684 -1.709,-1.684 H 1.907 C 0.842,-1.908 0,-1.065 0,0"
         style="fill:#284f82;fill-opacity:1;fill-rule:nonzero;stroke:none"
         id="path162" /></g><g
       id="g164"
       transform="matrix(0.75935271,0,0,0.75935271,241.74295,185.3042)"><path
         d="m 0,0 c -0.421,0.298 -0.72,0.843 -0.72,1.437 0,0.992 0.793,1.759 1.785,1.759 0.497,0 0.842,-0.173 1.09,-0.345 1.314,-0.967 2.75,-1.563 4.437,-1.563 1.559,0 2.503,0.62 2.503,1.637 v 0.05 C 9.095,3.939 8.5,4.437 5.601,5.18 2.105,6.071 -0.148,7.037 -0.148,10.481 v 0.05 c 0,3.149 2.527,5.23 6.071,5.23 2.105,0 3.939,-0.545 5.501,-1.536 0.422,-0.248 0.843,-0.77 0.843,-1.512 0,-0.991 -0.793,-1.76 -1.786,-1.76 -0.371,0 -0.668,0.1 -0.965,0.274 -1.264,0.743 -2.454,1.164 -3.643,1.164 -1.462,0 -2.23,-0.669 -2.23,-1.512 v -0.05 C 3.643,9.688 4.387,9.317 7.385,8.55 10.903,7.633 12.887,6.368 12.887,3.346 V 3.297 c 0,-3.444 -2.627,-5.379 -6.369,-5.379 C 4.237,-2.082 1.934,-1.388 0,0"
         style="fill:#284f82;fill-opacity:1;fill-rule:nonzero;stroke:none"
         id="path166" /></g><g
       id="g168"
       transform="matrix(0.40922995,0,0,0.40922995,37.379205,212.93133)"><path
         d="m 0,0 c -1.418,1.579 -2.977,2.963 -4.67,4.151 -5.067,-3.423 -11.366,-5.18 -18.852,-5.18 -0.17,0 -0.327,-0.016 -0.496,-0.018 0.169,-0.002 0.326,-0.02 0.496,-0.02 6.877,0 11.985,-1.954 15.615,-5.976 7.67,-8.5 6.232,-23.473 6.218,-23.611 -0.313,-2.908 1.79,-5.517 4.698,-5.831 0.193,-0.02 0.384,-0.031 0.572,-0.031 2.671,0 4.967,2.015 5.259,4.73 C 8.926,-30.986 10.823,-12.051 0,0"
         style="fill:#ff6565;fill-opacity:1;fill-rule:nonzero;stroke:none"
         id="path170" /></g><g
       id="g172"
       transform="matrix(0.40922995,0,0,0.40922995,21.453201,219.2532)"><path
         d="m 0,0 c -7.264,8.451 -5.087,23.421 -5.065,23.569 0.445,2.885 -1.527,5.588 -4.411,6.04 -2.901,0.451 -5.599,-1.522 -6.053,-4.411 -0.125,-0.804 -2.971,-19.861 7.457,-32.052 1.478,-1.728 3.146,-3.208 4.97,-4.475 4.848,3.522 10.878,5.339 17.998,5.421 C 8.227,-5.813 3.341,-3.888 0,0"
         style="fill:#ff6565;fill-opacity:1;fill-rule:nonzero;stroke:none"
         id="path174" /></g><g
       id="g176"
       transform="matrix(0.40922995,0,0,0.40922995,18.427315,213.02762)"><path
         d="m 0,0 c -10.723,-12.093 -8.537,-31.387 -8.438,-32.202 0.322,-2.688 2.607,-4.661 5.249,-4.661 0.211,0 0.426,0.013 0.641,0.039 2.903,0.349 4.973,2.986 4.622,5.889 -0.018,0.153 -1.626,15.478 5.848,23.91 3.35,3.776 8.064,5.647 14.371,5.743 C 15.146,-1.204 9.121,0.53 4.292,3.884 2.743,2.758 1.305,1.473 0,0"
         style="fill:#5e9ccf;fill-opacity:1;fill-rule:nonzero;stroke:none"
         id="path178" /></g><g
       id="g180"
       transform="matrix(0.40922995,0,0,0.40922995,35.468097,214.63017)"><path
         d="m 0,0 c 1.945,1.315 3.728,2.854 5.3,4.667 10.582,12.206 8.02,31.074 7.907,31.872 -0.413,2.89 -3.068,4.899 -5.978,4.485 C 4.339,40.618 2.323,37.942 2.724,35.051 2.743,34.901 4.688,20.088 -2.73,11.573 -6.344,7.426 -11.616,5.411 -18.853,5.411 c -0.17,0 -0.329,-0.02 -0.498,-0.022 0.17,-0.002 0.327,-0.018 0.498,-0.018 C -11.401,5.371 -5.086,3.568 0,0"
         style="fill:#5e9ccf;fill-opacity:1;fill-rule:nonzero;stroke:none"
         id="path182" /></g><g
       id="g184"
       transform="matrix(0.40922995,0,0,0.40922995,35.468097,214.63017)"><path
         d="m 0,0 c -5.086,3.568 -11.401,5.371 -18.853,5.371 -0.171,0 -0.328,0.016 -0.498,0.018 -7.12,-0.082 -13.15,-1.899 -17.998,-5.421 4.828,-3.354 10.855,-5.088 18.001,-5.166 0.169,0.002 0.326,0.017 0.495,0.017 7.487,0 13.786,1.757 18.853,5.181"
         style="fill:#c05863;fill-opacity:1;fill-rule:nonzero;stroke:none"
         id="path186" /></g><g
       id="g188"
       transform="matrix(0.40922995,0,0,0.40922995,5.679843,198.46321)"><path
         d="m 0,0 54.101,-37.649 56.103,37.703 3.158,90.56 C 85.37,102.106 54.438,102.047 54.083,102.05 53.636,102.061 24.63,102.079 -3.163,90.618 Z m 54.048,-49.358 c -1.057,0 -2.115,0.316 -3.024,0.949 l -59.247,41.23 c -1.37,0.953 -2.21,2.494 -2.267,4.161 l -3.382,96.885 c -0.075,2.154 1.161,4.137 3.127,5.018 30.889,13.829 63.448,13.78 64.83,13.754 1.387,0.016 35.965,0.079 66.859,-13.754 1.967,-0.881 3.202,-2.864 3.128,-5.018 l -3.38,-96.884 c -0.06,-1.697 -0.928,-3.262 -2.337,-4.211 l -61.353,-41.23 c -0.893,-0.601 -1.924,-0.9 -2.954,-0.9"
         style="fill:#aab7d2;fill-opacity:1;fill-rule:nonzero;stroke:none"
         id="path190" /></g></g></svg>
